<svg xmlns="http://www.w3.org/2000/svg" width="16" height="46" viewBox="0 0 16 46" fill="none"><g clip-path="url(#clip0_63_491)"><path fill-rule="evenodd" clip-rule="evenodd" d="M0.941818 16.7731C0.941818 13.9701 0.938575 11.1671 0.941818 8.36293C0.94398 6.77707 1.01964 5.18893 0.946141 3.60766C0.886694 2.32753 1.50279 1.6222 2.47124 1.11495C3.58453 0.534429 4.7832 0.26535 6.00349 0.123367C7.88852 -0.0941865 9.76705 -0.0403706 11.6218 0.416492C12.4768 0.626031 13.3188 0.88824 14.057 1.41953C14.7271 1.90158 15.1044 2.52218 15.1011 3.43362C15.0806 9.6568 15.086 15.8811 15.0849 22.1043C15.0849 24.9222 15.0719 27.7401 15.0935 30.558C15.1 31.3835 15.2503 32.2091 15.2589 33.0358C15.2849 35.5514 15.2762 38.0682 15.2708 40.5838C15.2708 40.8986 15.3346 41.1425 15.5389 41.3944C16.3527 42.4009 16.0717 43.649 14.8741 44.4642C13.9014 45.1261 12.8086 45.4604 11.691 45.6631C9.2958 46.097 6.88224 46.1222 4.49245 45.6722C3.47752 45.481 2.47772 45.102 1.52765 44.6692C1.0499 44.4516 0.626206 43.9799 0.307352 43.523C-0.168227 42.8417 -0.0709496 42.0425 0.478128 41.4242C0.695382 41.1792 0.75591 40.933 0.75591 40.6181C0.751586 37.814 0.748344 35.0098 0.765638 32.2068C0.767799 31.7648 0.903988 31.3263 0.936414 30.8832C0.971001 30.4217 0.962354 29.9568 0.962354 29.492C0.962354 25.4981 0.961273 21.5055 0.960193 17.5128C0.960193 17.2666 0.960193 17.0216 0.960193 16.7754H0.94398L0.941818 16.7731ZM14.5196 17.2471H14.5304C14.5304 14.5666 14.5304 11.8861 14.5304 9.20451C14.5304 7.35874 14.5174 5.51412 14.5272 3.66835C14.5304 3.00424 14.3153 2.47524 13.8224 2.06417C13.1577 1.50999 12.3806 1.21915 11.5764 1.01419C9.56818 0.503513 7.53724 0.473743 5.50306 0.788623C4.42868 0.954651 3.37808 1.23289 2.44962 1.8741C1.82488 2.30577 1.4401 2.87828 1.4963 3.713C1.51684 4.013 1.50927 4.31528 1.50927 4.61528C1.50603 8.86902 1.49954 13.1216 1.49954 17.3754C1.49954 22.0253 1.51143 26.6764 1.49846 31.3251C1.49738 31.7671 1.63357 32.1003 1.96107 32.2835C2.57068 32.6259 3.19001 32.9934 3.84826 33.1835C6.00457 33.8064 8.20629 33.8488 10.4156 33.5556C11.4413 33.4194 12.453 33.1972 13.3717 32.6637C14.0051 32.295 14.5196 31.8049 14.5207 30.953C14.5228 26.3844 14.5207 21.8158 14.5207 17.2471H14.5196ZM1.3158 32.1828C1.3158 32.4152 1.3158 32.548 1.3158 32.6797C1.3158 35.343 1.34498 38.0063 1.2985 40.6685C1.28013 41.7265 1.69518 42.4307 2.56635 42.7788C3.40294 43.112 4.27952 43.3833 5.1615 43.5265C7.07247 43.8356 8.991 43.7475 10.8922 43.3765C11.985 43.1635 13.0604 42.883 13.9824 42.1696C14.4104 41.8376 14.699 41.4288 14.699 40.8414C14.699 38.4769 14.699 36.1113 14.699 33.7469V32.2045C13.8527 33.1675 12.814 33.5533 11.7256 33.8018C9.33687 34.3457 6.93736 34.3468 4.54433 33.8407C3.377 33.5934 2.23885 33.2396 1.3158 32.1851V32.1828ZM1.09314 41.6876C0.55595 42.1502 0.492179 42.8463 0.939656 43.3868C1.60763 44.194 2.51555 44.5593 3.45374 44.8261C5.68464 45.4615 7.95769 45.5428 10.2459 45.3081C11.4035 45.189 12.5395 44.9543 13.6301 44.5089C14.3337 44.2215 14.9498 43.823 15.2686 43.0478C15.5086 42.465 15.421 41.9315 15.0806 41.6349C14.7952 41.9784 14.5661 42.4066 14.2191 42.6368C13.6592 43.0089 13.0464 43.3318 12.4152 43.5333C10.1832 44.249 7.89392 44.281 5.59709 44.0108C4.51947 43.8837 3.45698 43.657 2.47232 43.1395C1.86379 42.8188 1.3212 42.4227 1.0953 41.6876H1.09314Z" fill="black"></path><path fill-rule="evenodd" clip-rule="evenodd" d="M14.52 17.2487C14.52 21.8173 14.5211 26.386 14.52 30.9546C14.52 31.8076 14.0056 32.2966 13.3711 32.6652C12.4534 33.1988 11.4407 33.421 10.4149 33.5572C8.20565 33.8515 6.00502 33.808 3.84762 33.1851C3.18937 32.995 2.57004 32.6275 1.96043 32.2851C1.63401 32.1019 1.49674 31.7676 1.49782 31.3267C1.51187 26.6768 1.4989 22.0269 1.4989 17.377C1.4989 13.1232 1.50539 8.87061 1.50863 4.61686C1.50863 4.31687 1.5162 4.01458 1.49566 3.71458C1.43946 2.88101 1.82424 2.3085 2.44898 1.87568C3.37744 1.23447 4.42804 0.956234 5.50242 0.790206C7.5366 0.475326 9.56754 0.505096 11.5758 1.01577C12.3799 1.22073 13.1571 1.51271 13.8218 2.06576C14.3147 2.47682 14.5298 3.00582 14.5265 3.66993C14.5168 5.5157 14.5287 7.36147 14.5298 9.2061C14.5309 11.8866 14.5298 14.5671 14.5298 17.2487H14.519H14.52Z" fill="#DADADA"></path><path fill-rule="evenodd" clip-rule="evenodd" d="M1.31475 32.182C2.23889 33.2365 3.37596 33.5904 4.54329 33.8377C6.93632 34.3438 9.33583 34.3426 11.7245 33.7987C12.813 33.5503 13.8517 33.1644 14.698 32.2014V33.7438C14.698 36.1094 14.698 38.4739 14.698 40.8383C14.698 41.4257 14.4094 41.8356 13.9814 42.1665C13.0594 42.8799 11.9839 43.1604 10.8912 43.3734C8.98995 43.7444 7.07142 43.8337 5.16046 43.5234C4.27848 43.3803 3.4019 43.1089 2.56531 42.7757C1.69414 42.4288 1.27908 41.7234 1.29746 40.6654C1.34394 38.0033 1.31475 35.3399 1.31475 32.6766C1.31475 32.545 1.31475 32.4121 1.31475 32.1797V32.182Z" fill="#F6F6F6"></path><path fill-rule="evenodd" clip-rule="evenodd" d="M1.09326 41.6894C1.31916 42.4245 1.86176 42.8207 2.47028 43.1413C3.45387 43.6588 4.51744 43.8855 5.59506 44.0126C7.89189 44.284 10.1812 44.2508 12.4131 43.5352C13.0444 43.3336 13.6583 43.0107 14.2171 42.6386C14.564 42.4085 14.7943 41.9802 15.0785 41.6367C15.419 41.9344 15.5066 42.4669 15.2666 43.0497C14.9478 43.8237 14.3317 44.2233 13.628 44.5107C12.5385 44.9561 11.4025 45.1909 10.2438 45.3099C7.95566 45.5447 5.68261 45.4622 3.45171 44.8279C2.51352 44.5611 1.60559 44.1958 0.937621 43.3886C0.490144 42.8482 0.553915 42.152 1.0911 41.6894H1.09326Z" fill="#F6F6F6"></path><path fill-rule="evenodd" clip-rule="evenodd" d="M8.47311 1.09874C9.86742 1.164 11.0812 1.31629 12.3815 1.91055C12.7317 2.07086 13.0808 2.27467 13.3727 2.53115C14.0417 3.12084 14.0352 3.91548 13.3024 4.40555C12.7241 4.79257 12.0767 5.11775 11.4174 5.30325C9.00165 5.98453 6.57403 5.95018 4.17992 5.175C3.66111 5.00783 3.15418 4.72043 2.71319 4.3838C1.98577 3.82961 2.00307 3.06817 2.71103 2.47619C3.39306 1.90483 4.20154 1.59567 5.04353 1.44911C6.11899 1.26018 7.01178 1.12965 8.11642 1.07812C8.22018 1.08843 8.36826 1.08843 8.47419 1.09874H8.47311ZM12.3793 4.47769C11.4066 3.6361 10.3138 3.21588 9.00057 2.97084C8.27423 2.83458 7.83216 3.09221 7.51979 3.72541C7.28416 4.20174 7.07879 4.69524 6.82912 5.24714C8.76386 5.35706 10.5819 5.26317 12.3793 4.47769ZM3.09258 4.10785C3.2493 4.21548 3.3455 4.31853 3.46007 4.35631C4.24045 4.61852 5.02516 4.86585 5.80878 5.12004C6.17195 5.23798 6.44325 5.16012 6.59997 4.75478C6.65726 4.60707 6.77183 4.48456 6.8637 4.35288C7.17931 3.9006 7.49601 3.44946 7.85269 2.93993C6.11791 2.79222 4.6047 3.27084 3.09149 4.10899L3.09258 4.10785ZM8.73035 2.63192C10.1528 2.85061 11.3871 3.34641 12.5944 3.93609C12.7328 4.00365 13.0116 4.04258 13.0592 3.97044C13.1954 3.76434 13.324 3.48725 13.3056 3.25252C13.2894 3.04412 13.1078 2.79794 12.9327 2.66741C12.2507 2.16017 11.5265 1.76514 10.6413 1.90941C9.99172 2.0159 9.36374 2.16589 8.73035 2.63192ZM7.78135 2.49451C7.66354 2.00216 7.04961 1.49148 6.62916 1.54758C6.18168 1.60827 5.7342 1.66323 5.29213 1.75369C4.53012 1.90941 3.78217 2.12238 3.14121 2.61474C2.85587 2.83458 2.63321 3.10595 2.69158 3.43457C4.3961 3.11969 6.08008 2.80939 7.78244 2.49451H7.78135ZM10.2111 1.69415V1.60254C9.33131 1.55331 8.45041 1.50407 7.57059 1.45484C7.56302 1.4972 7.55654 1.54071 7.54897 1.58422C7.84513 1.85903 8.14128 2.13383 8.40069 2.37314C9.03516 2.13498 9.62314 1.91513 10.2122 1.69415H10.2111Z" fill="#1D1D1B"></path></g><defs><clipPath id="clip0_63_491"><rect width="16" height="46" fill="white"></rect></clipPath></defs></svg>