<svg xmlns="http://www.w3.org/2000/svg" width="48" height="33" viewBox="0 0 48 33" fill="none"><g clip-path="url(#clip0_173_2)"><path fill-rule="evenodd" clip-rule="evenodd" d="M46.793 10.7829L46.7279 10.7773C46.5737 10.7773 46.1723 10.8714 45.9958 10.9047L41.8818 11.6723C41.5437 11.7369 41.6756 11.6483 41.2556 12.3901C40.819 13.1595 40.0218 14.2464 39.4291 14.9623C39.3622 15.0417 39.2841 15.121 39.221 15.2022L38.8084 15.6838C38.7471 15.7465 38.6542 15.8462 38.5947 15.9163C38.4554 16.0787 38.3123 16.2263 38.1711 16.3868C37.9147 16.6747 37.3739 17.1895 37.0729 17.4792C36.9874 17.5604 36.9354 17.6268 36.8499 17.7043L35.9209 18.542C35.7629 18.6657 35.5901 18.8188 35.4396 18.9554L34.7093 19.5661C34.321 19.8466 33.8787 20.2194 33.4625 20.533C28.4102 24.3471 21.4885 27.7626 15.1726 28.855C15.0258 28.8808 14.5223 28.9399 14.4219 28.9768C14.3365 29.0082 14.1153 29.4123 14.0577 29.5082L12.0156 32.7983C12.2795 32.8241 13.2606 32.6433 13.5746 32.5916C14.0763 32.5086 14.5687 32.4163 15.0649 32.3148C16.0423 32.11 16.9881 31.872 17.9209 31.6099C19.7307 31.1025 21.5238 30.4604 23.1869 29.7776C25.9964 28.6262 28.871 27.1777 31.4445 25.6148C31.6434 25.4949 31.8125 25.3971 32.002 25.2753C32.9274 24.6848 33.771 24.1552 34.6759 23.5205L35.4507 22.9761C35.5511 22.9042 35.618 22.8599 35.7127 22.7916C35.893 22.6624 36.0472 22.5462 36.2275 22.4115L37.2271 21.6439C37.3888 21.5129 37.5635 21.3671 37.7288 21.2508L39.6613 19.627C39.7598 19.5348 39.8044 19.496 39.8992 19.4167C40.0869 19.2635 40.4065 18.9277 40.5886 18.7653C41.1739 18.2413 41.618 17.8003 42.1383 17.2301L42.7793 16.5529C42.9614 16.3776 43.8552 15.3129 44.0169 15.1081L45.1559 13.5895C45.4922 13.1282 46.7335 11.1335 46.7948 10.7829" fill="white"></path><path fill-rule="evenodd" clip-rule="evenodd" d="M10.0669 32.9563C10.2806 32.65 10.4571 32.3474 10.6634 32.0263L12.4565 29.181C12.0347 29.1681 11.5683 29.2124 11.1298 29.205C10.7042 29.1976 10.2732 29.1773 9.85507 29.1312C7.73862 28.9061 5.55343 28.1698 4.59833 26.2858C3.86994 24.8484 4.07805 23.304 4.5686 21.8038C4.88821 20.8295 5.58688 19.5378 6.17777 18.6854C6.26325 18.5617 6.38031 18.4012 6.43977 18.2812L4.00001 18.7296C3.89595 18.7499 3.26975 18.8367 3.18799 18.9068C3.07278 19.0046 2.12141 20.4844 2.01735 20.6561C1.88914 20.8664 1.77765 21.0694 1.65501 21.2816C0.179629 23.8317 -0.944558 27.4945 1.14216 30.1866C1.38557 30.5003 1.79994 30.9137 2.1307 31.1535C3.40354 32.0798 4.70611 32.5356 6.36359 32.7921C6.94891 32.8825 7.54909 32.9416 8.15299 32.9674C8.61382 32.9877 9.64696 33.0375 10.065 32.9563" fill="white"></path><path fill-rule="evenodd" clip-rule="evenodd" d="M31.8457 0.91001L31.8029 0.985665L31.7602 1.06132C31.7435 1.09084 31.749 1.07608 31.736 1.10376L30.3926 3.25529C30.6026 3.25529 31.2288 3.09291 31.487 3.04494C34.0866 2.56702 37.3068 2.35298 39.7168 3.33279C40.999 3.85314 41.9801 4.66504 42.4855 5.86259C42.7624 6.51949 42.8701 7.348 42.7958 8.15436C42.7586 8.54555 42.6899 8.9109 42.6026 9.27072C42.5617 9.44233 42.5115 9.61024 42.4558 9.7837C42.413 9.9184 42.309 10.1712 42.2922 10.2967C42.6713 10.2505 43.1507 10.138 43.5372 10.0605C43.9516 9.97744 44.3641 9.90364 44.7859 9.8206C45.1334 9.75233 47.1123 9.34638 47.2814 9.35191C47.3353 9.2984 47.3743 9.31685 47.4338 9.26888C47.5713 8.98656 47.7255 8.33519 47.8035 7.98645C48.177 6.31652 48.0525 4.61522 47.1476 3.20363C46.5957 2.34191 45.8023 1.71822 44.9067 1.23108C41.7385 -0.496051 36.8051 -0.112244 33.243 0.611084L31.8475 0.913701L31.8457 0.91001Z" fill="white"></path><path fill-rule="evenodd" clip-rule="evenodd" d="M38.5737 6.83597C37.8955 5.79342 36.7713 5.19187 35.4539 4.91324C34.4579 4.70289 33.382 4.64384 32.3303 4.70842C29.5282 4.88188 26.7558 5.6661 24.2194 6.66252C23.8218 6.81936 23.4186 6.98728 23.0358 7.1515C22.3297 7.45596 21.4285 7.88221 20.7502 8.23649C20.3805 8.4284 20.033 8.6203 19.6576 8.81774C18.9292 9.1997 18.2362 9.63702 17.5542 10.0596C17.387 10.1629 17.2142 10.2644 17.0488 10.3806L15.5585 11.4103C15.12 11.7184 14.0349 12.5432 13.6576 12.8772L12.7639 13.6541C12.6227 13.7832 12.4703 13.9161 12.3272 14.0416L10.6679 15.7244L9.53253 17.1065C9.33557 17.4054 9.06985 17.7431 8.84501 18.0881C8.4195 18.7432 8.01999 19.4776 7.70596 20.3098C6.92925 22.3598 7.26558 24.2198 8.61089 25.2605C9.95248 26.3012 11.95 26.6186 14.0739 26.4876C18.801 26.1979 23.8924 24.0907 27.7908 21.7694C28.1439 21.559 28.4876 21.3357 28.8295 21.1365L31.5424 19.2562C31.6261 19.1879 31.7097 19.1381 31.7859 19.0753C32.1073 18.8115 32.4195 18.5827 32.7279 18.3225C33.0476 18.0512 33.3281 17.804 33.6292 17.5512L34.902 16.3296C35.5431 15.6691 35.9035 15.2668 36.4851 14.5693C36.6171 14.4125 36.7174 14.2593 36.8531 14.0914C37.5257 13.2537 38.2876 11.9214 38.6778 10.8844C39.1423 9.65178 39.3579 8.03352 38.5756 6.83412L38.5737 6.83597ZM32.2541 12.2351C32.2281 12.331 32.1333 12.4897 32.0553 12.6189C32.0293 12.6632 32.0051 12.7019 31.9865 12.737C31.8955 12.8994 31.8174 13.0507 31.7171 13.2186C31.6595 13.3164 31.6223 13.3884 31.5945 13.4437C31.4737 13.6818 31.5146 13.5895 30.7156 13.75C30.2956 13.8349 29.8682 13.9069 29.4427 13.9881L28.1513 14.2316C28.0993 14.2538 27.5585 14.8848 27.4322 15.0158C27.3058 15.1469 27.1869 15.2668 27.0476 15.383C27.0141 15.4126 26.9807 15.4421 26.9472 15.4735C26.8469 15.5676 26.7465 15.6709 26.6388 15.7502C26.3842 15.9385 26.1129 16.1876 25.7952 16.4145C24.7973 17.1268 24.0671 17.5401 22.9094 18.0992C22.4635 18.3151 21.776 18.5753 21.278 18.7321C20.5273 18.9683 20.7502 18.7487 20.3693 19.3558L19.2043 21.2269C19.1318 21.3487 19.1336 21.3376 18.959 21.3616C18.409 21.4372 17.8459 21.559 17.2885 21.6181C17.3257 21.4981 17.5784 21.1383 17.6601 21.0073L18.788 19.2174C18.7304 19.2174 18.6728 19.2174 18.6152 19.2174C17.7586 19.2082 16.9652 19.079 16.4951 18.5328C16.4486 18.4793 16.4077 18.424 16.3724 18.3649C16.1216 17.9553 16.1104 17.422 16.2646 16.9257C16.3074 16.791 16.3668 16.6636 16.4133 16.5382C16.4282 16.4957 16.443 16.4551 16.4523 16.4145C15.9841 16.4607 13.8974 16.9257 13.719 16.9035L14.5421 15.706C14.6202 15.6008 14.8432 15.5916 15.068 15.5473C15.3449 15.4919 17.2643 15.1469 17.3498 15.0933L17.6713 14.7317C17.7846 14.6044 17.8831 14.4992 18.0057 14.3829C18.5799 13.8349 19.234 13.3109 19.9382 12.8329C21.1981 11.9768 22.6177 11.27 24.0262 10.8364C24.1581 10.7958 24.1488 10.7995 24.212 10.6925L25.1429 9.22553C25.4551 8.7347 25.2823 8.86018 25.9884 8.70887C26.2393 8.65536 26.518 8.5834 26.7837 8.52804C26.9026 8.50405 27.0178 8.48006 27.1293 8.4653C27.1033 8.55941 26.6295 9.2975 26.5403 9.44143C26.4362 9.6075 26.347 9.7588 26.2411 9.91934C26.1426 10.0688 26.0051 10.2644 25.9438 10.4102C26.4418 10.4028 26.8023 10.3401 27.3226 10.4083C28.0138 10.5006 28.6047 10.7663 28.8927 11.259C29.0228 11.4804 29.0934 11.748 29.0822 12.0653C29.0804 12.1336 29.0729 12.2037 29.0637 12.2775C29.0358 12.4768 28.928 12.7425 28.9206 12.8754L32.2504 12.2351H32.2541Z" fill="white"></path><path fill-rule="evenodd" clip-rule="evenodd" d="M30.085 1.45911C30.1054 1.42959 30.1184 1.42959 30.1128 1.42405L30.0813 1.39453C29.8416 1.42036 29.3268 1.60489 29.0741 1.68423C26.5192 2.47214 24.8208 3.19178 22.4089 4.26017C21.4947 4.66427 19.7685 5.52968 18.91 6.01682C17.8527 6.61467 16.5761 7.30848 15.5802 7.96538L12.8264 9.80507C12.5439 10.021 12.1556 10.2682 11.8731 10.5007L11.3064 10.9233C10.0503 11.9068 9.08404 12.6781 7.88552 13.7668L7.3801 14.2502C7.15155 14.4716 6.92857 14.6635 6.70002 14.8887C6.30237 15.2798 5.09828 16.5346 4.78797 16.9313C4.69506 17.0513 4.57057 17.1564 4.4758 17.2764C4.41448 17.3539 4.22866 17.5679 4.19336 17.6417C4.50181 17.6159 4.94777 17.496 5.27481 17.4369L6.93972 17.1177C7.09023 17.09 7.3671 17.0716 7.45257 16.9738C7.5046 16.9147 7.55477 16.8483 7.59751 16.7892C7.64768 16.7191 7.69785 16.6859 7.75545 16.6195C7.85951 16.494 7.93755 16.3907 8.05833 16.2634C8.15867 16.1563 8.24415 16.0401 8.35564 15.9238L9.32374 14.9163C9.43895 14.8001 9.53743 14.7023 9.65635 14.5897L10.1599 14.1044C10.2212 14.0491 10.2621 13.9956 10.3234 13.9384C10.4405 13.8313 10.5669 13.7446 10.6783 13.6339L12.0813 12.4234C12.3154 12.2186 12.5532 12.0359 12.8115 11.8348C13.0605 11.6429 13.3002 11.4529 13.5566 11.2609C14.2795 10.7185 15.1175 10.1298 15.8868 9.63346C16.775 9.05775 17.3974 8.68501 18.3191 8.13145C18.8728 7.79931 19.4414 7.50961 20.0212 7.19407C22.3773 5.91164 25.8093 4.49635 28.4516 3.76565C28.7081 3.69368 28.6319 3.73612 28.8066 3.46118C28.9032 3.30987 28.9645 3.19916 29.0611 3.05708L30.085 1.46096V1.45911Z" fill="white"></path><path fill-rule="evenodd" clip-rule="evenodd" d="M21.7793 17.1114C22.2884 17.0246 23.4628 16.3936 23.9087 16.1168L24.3714 15.8031C24.5294 15.6998 24.6836 15.5817 24.8192 15.4728C24.9698 15.3492 25.5532 14.8639 25.6238 14.707C25.4176 14.7273 23.0559 15.161 22.9834 15.1979C22.9444 15.2182 21.835 16.9619 21.7793 17.1114Z" fill="white"></path><path fill-rule="evenodd" clip-rule="evenodd" d="M23.8007 13.8566L26.1401 13.4101C26.194 13.399 26.2516 13.3898 26.3055 13.3806C26.3464 13.3732 26.4374 13.3584 26.4634 13.3252C26.5601 13.209 26.5972 12.6056 26.1215 12.2771C25.9766 12.1775 25.8056 12.1092 25.6012 12.0668C25.4656 12.0391 25.0345 11.9653 24.9286 12.0409C24.8989 12.0631 23.8193 13.7976 23.7988 13.8566" fill="white"></path><path fill-rule="evenodd" clip-rule="evenodd" d="M19.9343 17.4196C20.0886 17.1871 21.0752 15.6666 21.1105 15.543C20.8857 15.5725 18.7563 15.9674 18.7135 15.9932C18.6615 16.0246 18.7135 15.9729 18.6745 16.0283C18.5983 16.1408 18.5277 16.7479 18.8659 17.0671C19.0759 17.2646 19.52 17.4491 19.9343 17.4196Z" fill="white"></path><path fill-rule="evenodd" clip-rule="evenodd" d="M19.5663 14.6733C19.7744 14.6603 21.9262 14.2378 21.9745 14.199C21.9894 14.188 23.0504 12.5586 23.0931 12.4258C22.3777 12.5789 20.9079 13.4942 20.3077 13.9739C20.1405 14.1068 19.6295 14.5459 19.5645 14.6733" fill="white"></path></g><defs><clipPath id="clip0_173_2"><rect width="48" height="33" fill="white"></rect></clipPath></defs></svg>