<svg xmlns="http://www.w3.org/2000/svg" width="50" height="50" viewBox="0 0 50 50" fill="none"><g clip-path="url(#clip0_63_389)"><path fill-rule="evenodd" clip-rule="evenodd" d="M24.9121 50C18.4296 50 12.0096 47.2728 7.30217 42.5185C2.53007 37.704 -0.0611357 31.4401 -0.000927013 24.8796C0.13064 10.9669 11.1555 0.0379092 25.1017 0H25.1619C31.4347 0 37.7433 2.69824 42.4663 7.40567C47.1871 12.1086 49.9322 18.4283 49.9991 24.7413C50.066 31.0543 47.3633 37.4543 42.5845 42.3C37.7767 47.1746 31.3611 49.9822 24.9879 50.0022H24.9143L24.9121 50Z" fill="#2A2826"></path><path fill-rule="evenodd" clip-rule="evenodd" d="M25.1073 1.78523C37.3074 1.75179 48.087 12.4689 48.2141 24.7604C48.3456 37.0542 37.3252 48.1794 24.9802 48.2173C12.3564 48.2575 1.66379 37.5068 1.78421 24.8965C1.90686 11.9895 12.1691 1.82091 25.1073 1.78523Z" fill="white"></path><path fill-rule="evenodd" clip-rule="evenodd" d="M24.9802 48.4411C12.0599 48.3921 1.33602 37.9626 1.57017 24.5494C1.79093 11.9301 11.9238 1.55414 25.0471 1.5586C38.0433 1.56306 48.6735 12.084 48.4304 25.4793C48.2029 38.0674 38.0031 48.3809 24.9802 48.4411ZM24.9557 47.7744C37.5371 47.7208 47.5072 37.8065 47.7592 25.5239C48.0245 12.5344 37.8136 2.40375 25.3615 2.23204C12.4679 2.05141 2.41309 12.22 2.23693 24.6542C2.05407 37.5032 12.3163 47.6852 24.9557 47.7744Z" fill="#2B2A28"></path><path fill-rule="evenodd" clip-rule="evenodd" d="M5.5745 24.9823C5.5299 14.4235 14.2379 5.66868 24.7699 5.57502C35.4492 5.47913 44.3445 13.9864 44.4247 24.8329C44.505 35.7173 35.8862 44.0885 25.6686 44.4163C14.5344 44.7731 5.58565 35.8845 5.57227 24.9845L5.5745 24.9823ZM43.7602 25.0158C43.7602 14.564 35.2061 6.06784 24.6584 6.25293C14.6638 6.42686 6.28139 14.5238 6.25017 24.9712C6.21895 35.3873 14.6749 43.7853 25.0821 43.7652C35.3622 43.7451 43.7892 35.2869 43.7602 25.018V25.0158Z" fill="#2B2A28"></path><path fill-rule="evenodd" clip-rule="evenodd" d="M40.7227 25.0815C40.6536 34.1262 33.1453 41.0658 24.366 40.7112C15.7004 40.3611 8.78534 33.0469 9.30046 24.0646C9.7799 15.7246 16.695 9.13732 25.2201 9.27557C34.2269 9.42275 40.7807 16.7727 40.7227 25.0792V25.0815ZM25.3227 40.0512C33.4598 39.8683 40.0649 33.2342 40.0493 24.9722C40.0359 16.7125 33.3951 9.9401 24.9949 9.9401C16.5946 9.9401 9.6528 17.0135 9.94715 25.5498C10.2214 33.4951 16.8288 40.2028 25.3204 40.0512H25.3227Z" fill="#2B2A28"></path><path fill-rule="evenodd" clip-rule="evenodd" d="M25.0197 37.0335C18.3499 37.0335 12.9557 31.6526 12.9668 24.9939C12.978 18.3241 18.399 12.7649 25.3899 12.9745C31.9058 13.1685 37.0704 18.5382 37.0302 25.1634C36.9901 31.6481 31.5713 37.0335 25.0175 37.0335H25.0197ZM25.0063 13.6412C18.7089 13.6457 13.6001 18.7345 13.6358 25.0408C13.6715 31.4117 18.8249 36.3578 25.0063 36.3622C31.3059 36.3667 36.4014 31.249 36.3501 24.8601C36.2988 18.5784 31.1409 13.6234 25.0063 13.6412Z" fill="#2B2A28"></path><path fill-rule="evenodd" clip-rule="evenodd" d="M16.6885 25.2755C16.3964 20.9828 19.9977 16.9644 24.3707 16.6902C29.1651 16.3869 32.8333 19.8991 33.2793 24.0602C33.8056 28.975 30.1552 33.0045 25.5726 33.31C20.7202 33.6333 16.7777 29.8246 16.6907 25.2777L16.6885 25.2755ZM32.6527 24.7737C32.4832 20.4432 28.9332 17.1361 24.6004 17.3591C20.4906 17.571 17.3084 20.878 17.3441 25.0413C17.382 29.4388 21.0012 32.8306 25.2983 32.6566C29.475 32.4871 32.8155 28.9058 32.6527 24.7737Z" fill="#2B2A28"></path><path fill-rule="evenodd" clip-rule="evenodd" d="M25.0207 20.635C27.3131 20.6284 29.3401 22.642 29.3647 24.9522C29.3892 27.2625 27.3176 29.3542 24.9984 29.3608C22.6257 29.3675 20.6166 27.3472 20.6389 24.9768C20.6612 22.5506 22.5901 20.6395 25.0229 20.6328L25.0207 20.635Z" fill="#E46114"></path><path fill-rule="evenodd" clip-rule="evenodd" d="M20.3706 25.1529C20.2078 22.7624 22.2148 20.5235 24.6476 20.3696C27.3169 20.2001 29.3618 22.158 29.6093 24.475C29.9036 27.2111 27.8699 29.4567 25.3166 29.6284C22.6139 29.809 20.4174 27.6861 20.3684 25.1529H20.3706ZM28.9782 24.8719C28.889 22.6152 27.0404 20.8914 24.7814 21.0096C22.6407 21.1211 20.9816 22.8426 21.0017 25.0124C21.0217 27.3048 22.9083 29.0709 25.1471 28.9795C27.3236 28.8903 29.0629 27.026 28.9782 24.8719Z" fill="#2B2A28"></path><path fill-rule="evenodd" clip-rule="evenodd" d="M22.6901 25.0748C22.6098 23.8817 23.611 22.7645 24.8241 22.6887C26.1554 22.604 27.1767 23.5807 27.2994 24.7358C27.4465 26.1006 26.4297 27.2222 25.1564 27.307C23.8073 27.3962 22.7124 26.3369 22.6878 25.0748H22.6901ZM26.6527 24.9432C26.6148 24.0066 25.8499 23.293 24.9133 23.3421C24.0258 23.3889 23.339 24.1025 23.3457 25.0012C23.3546 25.9511 24.1351 26.6848 25.065 26.6469C25.9681 26.6112 26.6884 25.8374 26.6549 24.9432H26.6527Z" fill="#2B2A28"></path></g><defs><clipPath id="clip0_63_389"><rect width="50" height="50" fill="white"></rect></clipPath></defs></svg>