<svg width="auto" height="auto" viewBox="0 0 682 258" fill="none" xmlns="http://www.w3.org/2000/svg">
<path d="M538.157 0H543.218L543.893 1.01221H548.954L549.291 2.02441H552.328L555.364 2.36182V1.68701L562.45 1.34961L565.486 1.01221L566.161 2.36182L570.21 4.38623L576.283 9.10986L580.669 12.4839L584.381 15.1831L586.405 16.8701V17.5449L587.417 17.8823L588.767 19.5693L589.779 20.2441V20.9189L591.129 21.5938L595.853 26.3174L598.552 29.6914L602.263 35.4272L607.324 43.5249L611.71 49.9355L615.084 56.0088L617.784 61.7446L620.146 65.4561L623.182 69.1675L626.894 73.8911L629.93 78.2773L632.292 80.3018L634.991 82.6636L637.353 85.7002L641.402 93.123L644.101 98.8589L648.15 106.282L650.849 111.005L652.874 114.717L657.26 123.152L660.634 129.562L662.658 133.949L666.032 141.709L667.044 146.433L667.382 150.144H677.841L680.878 152.843L681.215 153.518V162.291L678.179 165.327L606.987 165.665L605.3 166.677L600.576 171.4L599.901 171.738L594.84 172.075L591.804 174.1L587.08 178.148L584.381 180.51L579.995 184.896L576.283 187.258L568.86 190.97L562.45 194.344L557.051 196.368L553.677 197.38L550.641 198.393L547.267 199.067L545.917 199.742L542.206 200.08L539.169 201.092L535.795 201.429L533.433 202.441H530.396L527.022 203.791L523.648 204.128L518.925 208.515H518.25L517.575 209.864L511.839 215.6L508.128 216.95L504.079 218.974L502.392 219.649L501.717 220.999L499.355 223.698L498.006 225.722L495.307 228.421L492.27 230.446L488.221 232.808L483.16 236.519L476.75 240.23L474.05 240.905H463.591L459.542 240.23L453.469 237.531L447.733 234.495L444.359 233.145L439.635 229.771L436.261 228.084H433.225L430.525 229.434L427.489 233.145L423.777 238.543L420.741 242.255L416.354 246.641L411.631 250.015L404.883 254.401L400.159 257.101L398.135 257.775H393.749L385.988 257.438L378.228 256.426L373.504 255.751L370.805 254.739L365.744 249.678L362.37 247.991L359.333 247.316L312.097 246.979L308.723 246.304L299.613 245.966L274.646 245.629L265.873 243.942L257.775 242.255L246.641 240.568L242.93 239.893L232.133 239.218L231.121 238.881L227.409 238.543H223.36L218.637 238.881L218.299 239.556L205.815 239.893H202.779L201.767 240.568L174.1 240.905L168.701 241.243L167.352 241.917H152.506L150.819 241.243L134.624 240.568L132.262 239.893L127.538 239.556L126.188 238.881L122.814 238.543L113.03 238.206L108.644 237.531L100.546 236.856L93.7979 235.507L91.7734 234.832L87.3872 234.495H80.3018L77.9399 234.832H67.8179L62.4194 233.82L55.6714 232.133H51.96L50.2729 232.808L42.5127 233.145L41.1631 233.482L24.9678 234.157H19.2319L8.43506 231.458L5.06104 229.434L2.69922 227.072L1.01221 223.698L0.337402 221.673L0 218.637V214.588L0.674805 210.539L2.36182 206.49L5.73584 202.104L9.10986 198.73L13.1587 196.706L17.8823 195.019L21.5938 194.344L22.2686 193.669L23.2808 191.307L24.6304 189.283L29.0166 185.234L32.3906 182.535L37.1143 178.486L44.8745 170.726H45.5493V170.051L50.6104 166.677L53.3096 164.652L56.6836 161.616L59.3828 159.254L63.769 154.868L67.4805 151.831L71.1919 149.132L75.5781 145.42L77.9399 143.059L80.3018 140.359L84.0132 136.311L88.7368 131.25L90.7612 128.888L94.1353 126.188L96.1597 124.164H96.8345V123.489L99.5337 121.127L104.257 116.066L107.631 112.355L111.343 107.631L114.042 104.257L117.079 100.208L120.453 96.4971L122.14 94.8101L124.501 92.7856L126.863 91.436L130.237 91.0986L132.937 92.4482L135.298 95.4849L136.985 103.583L138.672 109.993L140.697 115.392L143.059 120.115L145.758 123.827L149.807 128.55L151.831 131.25L154.193 134.624L156.892 137.998L157.904 139.01V140.359L159.254 141.034L161.616 142.721L164.652 143.059L168.026 141.372L173.425 138.335L178.148 135.636L181.522 134.286L188.271 132.262L195.019 129.562L198.73 128.888H206.153L207.84 129.562L209.189 129.225L213.913 118.091L217.287 112.355L220.661 107.294L223.023 103.583L224.035 102.233H224.71V101.558L228.759 99.5337L230.108 99.8711L231.121 101.558L232.133 101.896L232.47 100.883L233.482 101.221L234.495 104.595L235.844 106.282L236.182 108.644L235.844 110.331L237.869 115.392L239.218 119.44L239.893 122.814L241.243 125.176L242.93 126.863L245.292 129.9L246.979 130.912L250.353 131.924L253.389 132.599L261.149 130.912L265.536 129.9L270.934 127.201L277.682 120.453L280.381 117.079L284.768 111.005L289.154 104.595L292.528 99.1963L296.577 91.436L298.264 87.0498L301.3 81.9888L305.349 77.2651L310.073 73.5537L311.76 72.5415H314.122L316.483 71.5293L318.845 72.5415L320.532 75.2407L321.882 74.9033L322.894 71.8667L326.268 68.8301H326.943V68.1553L330.654 66.4683H334.028L336.053 65.7935L338.415 69.5049L340.776 71.5293L343.138 71.1919L346.175 69.1675L347.524 68.4927L347.862 69.5049L351.573 69.1675L352.923 68.1553H353.598L354.272 66.8057L355.622 65.4561L356.972 62.7568L360.008 58.0332L361.021 56.3462H361.695L362.37 54.9966L364.732 49.5981V41.8379L364.395 38.8013L365.407 38.1265L366.419 34.415L367.769 33.7402L368.443 28.6792L368.781 28.0044L370.13 28.3418L370.468 29.0166L371.817 28.3418L373.167 27.3296H375.191L377.891 30.7036L379.578 33.7402L380.252 36.4395L379.915 38.1265V41.5005H381.602V48.2485L381.265 48.9233H380.59L380.927 59.7202L382.277 61.7446L383.626 63.4316L384.639 66.1309L385.313 66.8057L385.651 69.1675L386.663 70.5171L387 72.5415L385.988 76.5903L384.976 76.9277L385.651 78.6147L390.037 83.6758L391.724 86.0376L393.411 91.7734H395.436V88.7368L397.797 84.0132L400.159 80.9766L402.858 78.6147L403.871 78.2773V77.6025L406.57 75.2407L407.582 74.2285L408.932 71.8667L411.968 68.4927L415.342 64.1064L420.403 56.0088L424.115 50.6104L427.151 46.5615L429.513 42.8501L432.887 38.4639L434.574 36.1021L435.924 36.4395H437.273L440.647 32.728L441.66 32.0532L443.684 32.3906L446.721 34.0776L447.396 35.0898L449.42 34.7524L450.77 33.7402L453.131 33.0654L454.818 34.0776L455.156 35.4272L454.481 36.7769L458.53 36.4395L462.579 38.1265L465.953 40.1509L467.302 41.8379L470.001 47.2363L471.688 49.9355L473.375 51.6226L474.725 52.2974L476.075 50.2729L478.774 47.5737L479.786 47.2363L480.798 45.5493L482.485 44.5371L483.498 42.8501L484.847 42.5127L487.546 40.1509L489.233 38.1265L490.246 38.4639L490.92 37.1143L491.595 36.1021L492.27 34.0776L494.632 31.041L498.006 28.0044L501.042 25.6426L501.717 23.9556H503.404L504.417 22.9434L506.104 23.2808L507.116 21.9312H507.791V21.2563H510.152L515.213 19.2319L520.949 17.5449L522.636 16.5327L525.673 14.8457L529.047 11.8091L530.396 10.4595L534.108 5.06104L537.482 0.674805L538.157 0Z" fill="#006D3B"/>
<path d="M410.956 93.4604L412.643 94.1353L414.667 95.8223L417.029 96.1597L419.054 95.1475H425.127L428.164 96.4971L430.863 98.8589L434.912 103.583L438.286 107.631L441.322 114.379L444.359 118.766L446.383 120.453L448.408 121.802L450.432 124.501L451.782 125.851L456.168 126.526L461.566 129.225L463.591 131.587L463.253 133.274L461.566 134.624L457.518 135.636L455.831 135.973H453.469L451.782 135.636H449.083L446.721 137.66L445.371 141.372L444.696 145.42V151.494L445.371 154.868L446.721 157.567V158.242L448.07 158.579H450.432L451.782 157.904L457.518 157.567L461.904 158.917L463.591 159.254L467.64 158.242L469.327 156.555L471.351 154.868L473.713 154.53L476.075 155.205L476.412 154.193L479.111 153.855H482.148L483.498 152.843H484.172L483.835 150.481L482.485 150.144H472.701L470.676 150.481L468.989 150.144H465.278L463.253 151.156L456.168 151.494L454.481 150.481L452.457 148.12V140.697L453.131 139.685H457.18L461.566 140.359L463.591 141.372H499.693V139.685L501.042 139.01H505.429L506.104 141.034L508.465 141.372L514.876 141.034L515.888 140.022L517.238 140.359L517.575 141.372H524.998L527.022 141.709L527.36 140.359H539.169V149.469L537.819 149.807V150.481L538.494 150.819L537.482 151.156H529.047L527.36 150.144H519.6L519.262 151.831H522.636L523.311 153.518L536.132 153.855L558.401 154.193L559.076 154.868L615.422 155.205H675.479L675.817 155.542V159.929L628.581 160.266H610.361L604.288 160.604L602.601 161.616L601.251 163.64L596.527 166.002L588.767 169.713L585.73 172.075L582.356 175.449L578.645 178.486L574.934 181.185L569.535 184.222L559.413 188.945L550.641 192.319L543.555 194.344L533.771 196.368L526.685 198.055L521.287 199.067L518.587 200.417L514.876 203.116L510.827 206.828L508.465 209.189L505.766 211.214L500.03 214.25L494.969 219.649L491.258 222.686L487.209 226.397L482.485 229.771L476.075 233.482L472.026 235.169L470.676 235.507H465.278L459.879 234.157L454.481 231.795L446.721 227.409L439.298 222.686L435.249 221.336H432.887L429.513 222.686L426.139 225.047L424.115 226.734H423.44V227.409L420.741 229.771L417.367 233.482L414.667 237.531L411.631 241.243L404.883 247.316L400.497 250.015L398.135 251.365L395.773 252.04L392.399 252.377H387L380.59 251.702L375.191 250.015L371.817 248.328L367.431 245.292L364.732 243.604L361.358 242.592L358.996 242.255L320.195 241.917L315.134 241.243L309.061 240.905L280.719 240.568L273.296 239.556L264.186 237.869L249.003 235.507L233.482 233.82L229.771 233.482H222.011L210.202 234.495L194.344 234.832L175.787 235.844L159.591 236.182H151.494L142.384 235.169L130.575 234.495L121.127 232.808L102.908 231.458L89.749 229.771L70.1797 229.434L63.4316 228.759L54.9966 227.409L50.6104 227.072L41.8379 227.747L34.7524 228.084H21.5938L15.8579 227.072L12.1465 225.722L9.10986 223.698L7.08545 220.999L6.41064 219.312L6.07324 217.287V214.25L7.08545 210.202L9.10986 207.165L11.8091 204.466L16.8701 201.767L21.9312 200.08L25.6426 199.405H31.041L36.1021 200.08L41.8379 201.092L50.2729 202.104H60.7324L63.769 201.429L66.4683 200.08L68.8301 199.742L81.6514 199.405L85.0254 198.73L88.3994 198.393L101.896 198.055L121.127 196.706L123.489 196.031L125.514 192.657L126.863 189.958L127.875 186.246L128.888 179.498L129.9 160.941L130.912 157.904L133.611 155.542L136.311 154.53H143.396L147.107 155.205L150.819 157.567L154.868 161.278L158.579 163.978L163.978 166.339L171.063 169.039L180.51 172.75L190.295 176.799L197.38 179.498L199.067 179.835H204.803L209.189 178.823L212.226 177.136L214.588 175.112L216.275 173.425L219.986 170.726L223.023 168.701L226.397 165.327L228.759 160.941L229.771 159.929L230.783 159.591H233.482L236.856 160.266L242.592 160.604L247.653 160.266L250.015 159.591H253.052L261.824 160.941L267.897 161.616L276.67 163.303H281.056L286.455 161.278L294.89 157.567L306.361 153.518L318.17 148.794L323.906 146.095L329.979 142.721L339.089 137.998L349.886 132.937L356.972 130.575L363.382 128.888L367.094 126.863L370.468 124.501L375.191 122.477L376.878 122.14L382.614 121.802L384.301 120.79L384.639 120.115L385.313 111.68L386.326 109.656L390.712 106.282L395.436 101.558L398.81 99.1963L403.871 96.8345L409.606 93.7979L410.956 93.4604Z" fill="#FDFDFD"/>
<path d="M406.907 89.749H413.993L414.667 90.0864L426.477 90.7612L430.525 92.7856L434.574 96.4971L439.298 101.221L442.672 105.607L446.046 111.68L448.745 117.753L450.432 119.103L457.18 121.465L463.591 123.827L466.965 126.188L467.977 127.538V133.949L466.627 137.323L468.314 136.648H495.981L497.331 134.961L499.018 134.286H508.128L509.815 135.298V136.648L512.514 136.311L513.189 135.636H519.6L520.274 136.311L522.974 136.648L525.673 135.636H539.844L542.543 136.311L543.555 137.66L544.23 149.132L544.905 149.469L556.714 149.807L561.438 150.144L563.125 150.481L582.694 151.156L645.113 150.819L672.443 150.144H677.841L680.878 152.843L681.215 153.518V162.291L678.179 165.327L606.987 165.665L605.3 166.677L600.576 171.4L599.901 171.738L594.84 172.075L591.804 174.1L587.08 178.148L584.381 180.51L579.995 184.896L576.283 187.258L568.86 190.97L562.45 194.344L557.051 196.368L553.677 197.38L550.641 198.393L547.267 199.067L545.917 199.742L542.206 200.08L539.169 201.092L535.795 201.429L533.433 202.441H530.396L527.022 203.791L523.648 204.128L518.925 208.515H518.25L517.575 209.864L511.839 215.6L508.128 216.95L504.079 218.974L502.392 219.649L501.717 220.999L499.355 223.698L498.006 225.722L495.307 228.421L492.27 230.446L488.221 232.808L483.16 236.519L476.75 240.23L474.05 240.905H463.591L459.542 240.23L453.469 237.531L447.733 234.495L444.359 233.145L439.635 229.771L436.261 228.084H433.225L430.525 229.434L427.489 233.145L423.777 238.543L420.741 242.255L416.354 246.641L411.631 250.015L404.883 254.401L400.159 257.101L398.135 257.775H393.749L385.988 257.438L378.228 256.426L373.504 255.751L370.805 254.739L365.744 249.678L362.37 247.991L359.333 247.316L312.097 246.979L308.723 246.304L299.613 245.966L274.646 245.629L265.873 243.942L257.775 242.255L246.641 240.568L242.93 239.893L232.133 239.218L231.121 238.881L227.409 238.543H223.36L218.637 238.881L218.299 239.556L205.815 239.893H202.779L201.767 240.568L174.1 240.905L168.701 241.243L167.352 241.917H152.506L150.819 241.243L134.624 240.568L132.262 239.893L127.538 239.556L126.188 238.881L122.814 238.543L113.03 238.206L108.644 237.531L100.546 236.856L93.7979 235.507L91.7734 234.832L87.3872 234.495H80.3018L77.9399 234.832H67.8179L62.4194 233.82L55.6714 232.133H51.96L50.2729 232.808L42.5127 233.145L41.1631 233.482L24.9678 234.157H19.2319L8.43506 231.458L5.06104 229.434L2.69922 227.072L1.01221 223.698L0.337402 221.673L0 218.637V214.588L0.674805 210.539L2.36182 206.49L5.73584 202.104L9.10986 198.73L13.1587 196.706L17.8823 195.019L24.293 194.006H28.6792L35.7646 195.356L38.8013 196.031L47.5737 197.043L50.6104 197.718H55.334L60.7324 195.693L64.7812 195.356L79.627 195.019L83.3384 194.344L94.8101 193.332L101.558 192.994L114.379 192.657L118.766 192.319L119.44 191.982L121.127 186.583L124.501 178.823L124.839 177.811L125.176 160.266L125.851 156.892L127.875 153.518L130.575 151.494L134.624 149.807H142.046L149.469 150.819L152.843 152.168L155.542 154.53L157.567 156.892V157.567L158.917 158.242L164.315 160.266L175.112 164.652L185.909 168.701L191.307 171.063L196.706 173.762L200.08 175.112H202.779L206.49 172.75L209.864 170.051L214.25 167.352L217.625 165.665L220.661 163.303L220.999 162.965L221.673 159.929L225.047 155.205L227.072 153.518H231.795L238.881 155.542H242.592L243.942 154.53H253.727L255.076 155.205L266.885 156.555L272.284 157.229L274.646 157.904H276.67L279.707 157.229L285.105 155.88L294.552 152.506L302.312 149.807L310.41 146.77L321.882 141.372L335.041 134.624L342.801 130.237L349.211 127.201L354.947 125.176L360.683 123.827L364.057 122.477L366.756 120.453L370.468 117.753L371.48 117.416H379.578L379.24 115.054V108.981L380.927 106.957L385.313 104.257L389.7 100.546L392.062 97.8467L398.81 91.7734L400.834 90.7612L406.907 89.749ZM410.956 93.4604L407.582 94.8101L403.533 97.1719L398.135 99.5337L394.423 102.57L390.037 106.957L385.988 109.993L385.313 111.68L384.639 120.115L383.289 121.465L382.614 121.802L376.878 122.14L372.492 123.489L368.781 125.514L365.407 127.875L362.37 129.225L353.598 131.587L348.537 133.611L335.715 139.685L327.28 144.071L321.207 147.445L316.483 149.469L306.361 153.518L297.589 156.555L291.178 159.254L283.081 162.628L281.056 163.303H276.67L267.897 161.616L256.763 160.266L253.052 159.591H250.015L247.653 160.266L240.23 160.604L234.495 159.929L233.482 159.591H230.783L229.096 160.604L227.747 162.628L226.397 165.327L222.348 169.376L216.95 172.75L214.925 174.437L213.576 176.124L210.539 178.148L206.828 179.498L204.803 179.835H199.067L194.681 178.486L182.872 173.762L173.762 170.051L160.604 164.99L156.892 162.965L152.843 159.254L149.469 156.555L147.107 155.205L143.396 154.53H136.311L133.274 155.88L130.912 157.904L129.9 160.941L128.888 179.498L127.538 187.933L125.851 192.319L123.827 195.356L122.814 196.368L116.741 197.043L101.896 198.055L88.3994 198.393L84.0132 199.067L81.6514 199.405L68.8301 199.742L65.4561 200.417L62.7568 201.767L60.7324 202.104H50.2729L37.1143 200.417L34.415 199.742L31.041 199.405H25.6426L20.5815 200.417L15.5205 202.441L11.8091 204.466L8.77246 207.502L7.08545 210.202L6.07324 214.25V217.287L6.74805 219.986L8.09766 222.686L10.4595 224.71L14.5083 226.734L18.8945 227.747L21.5938 228.084H34.7524L52.2974 227.072L59.0454 228.084L65.4561 229.096L70.1797 229.434L89.749 229.771L102.908 231.458L121.127 232.808L130.575 234.495L146.433 235.507L151.494 236.182H159.591L175.787 235.844L194.344 234.832L210.202 234.495L222.011 233.482H229.771L245.966 235.169L257.775 236.856L270.259 238.881L277.345 240.23L280.719 240.568L309.061 240.905L315.134 241.243L320.195 241.917L358.996 242.255L363.72 243.267L366.419 244.617L373.504 249.34L377.891 251.027L382.614 252.04L387 252.377H392.399L396.785 251.702L399.484 250.69L404.883 247.316L409.269 243.267L412.643 240.23L416.354 235.169L419.054 231.458L422.765 227.747L423.44 227.409V226.734L424.79 226.06L428.838 223.023L431.875 221.673L432.887 221.336H435.249L439.973 223.023L444.021 225.722L450.432 229.434L457.18 233.145L463.253 235.169L465.278 235.507H470.676L474.725 234.157L479.786 231.458L483.498 229.096L487.884 225.722L492.27 221.673L495.644 218.974L498.006 216.612L500.03 214.25L506.778 210.539L511.165 206.49L513.526 204.128L517.238 201.429L520.274 199.405L523.986 198.393L529.722 197.38L537.145 195.693L545.242 194.006L554.352 190.97L563.125 187.258L572.234 182.872L578.308 178.823L581.682 175.787L584.381 173.425L586.743 171.063L591.466 168.364L597.877 165.327L601.251 163.64L602.601 161.616L604.288 160.604L613.735 160.266H635.666L675.817 159.929V155.542L675.479 155.205H615.422L559.076 154.868L558.401 154.193L536.132 153.855L523.311 153.518L522.636 151.831H519.262L519.6 150.144H527.36L529.047 151.156H537.482L538.494 150.481H537.819V149.807L539.169 149.469V140.359H527.36L527.022 141.709L522.974 141.372H517.575L516.9 140.022L515.551 140.359L514.876 141.034L507.116 141.372L506.104 141.034L505.429 139.01H501.042L499.693 139.685V141.372H463.591L461.566 140.359L457.18 139.685H453.131L452.457 140.697V148.12L454.818 150.819L456.168 151.494L463.253 151.156L465.278 150.144H468.989L471.688 150.481L472.701 150.144H482.485L483.835 150.481L484.172 152.843L482.485 153.518L482.148 153.855H477.424L476.075 154.53V155.205L473.713 154.53L471.351 154.868L468.652 156.892L467.64 158.242L463.591 159.254L461.904 158.917L457.518 157.567L451.782 157.904L450.432 158.579H448.07L446.721 158.242L446.046 156.555L445.034 153.855L444.696 151.494V145.42L445.708 140.359L447.058 137.323L449.083 135.636H451.782L453.469 135.973H455.831L460.892 134.961L462.916 133.611L463.591 132.599L463.253 130.912L460.892 128.888L456.168 126.526L451.782 125.851L450.432 124.501L448.408 121.802L445.034 119.44L442.672 116.404L439.973 111.68L438.286 107.631L434.574 103.245L430.188 98.1841L427.826 96.1597L425.127 95.1475H419.054L417.029 96.1597L414.667 95.8223L411.631 93.4604H410.956Z" fill="#837021"/>
<path d="M506.441 171.738H515.551L514.876 173.087L508.128 176.799L504.754 178.486L500.705 180.173L494.632 184.222L488.559 188.608L484.847 191.645L481.811 193.332L474.725 195.019L464.603 194.681L459.879 192.657L459.205 191.982L459.542 190.295L461.566 186.583L463.928 183.547L466.29 181.185L467.64 180.848L476.075 180.173L482.148 178.148L486.534 175.449L491.258 173.425L492.607 173.087L504.079 172.75L506.104 172.075L506.441 171.738Z" fill="#847122"/>
<path d="M545.242 152.168H553.34L559.75 152.506L560.763 152.843L574.934 153.181H645.113L650.849 152.843L653.886 152.506L655.573 152.843L657.26 152.506H667.044L674.805 152.843L676.492 153.855V154.868L559.076 154.53V153.855L546.592 153.518L545.242 152.843V152.168Z" fill="#7F6517"/>
<path d="M529.722 137.323L537.819 137.66L539.169 137.998L540.856 139.685L541.531 144.071V150.481L542.206 151.831L544.567 152.168L546.592 153.181L556.714 153.518L558.401 153.855V154.193H536.132L523.311 153.855L522.636 152.506V151.831L519.262 152.168L518.925 150.819L519.6 149.807H527.36L529.047 150.819H537.482L537.819 149.807L538.832 149.469L539.169 140.697L539.506 139.685L527.36 139.347L527.022 137.998L529.722 137.323Z" fill="#837021"/>
<path d="M490.583 149.807H512.514L513.864 150.481V152.506L511.165 153.181L510.49 154.193L505.091 155.88L502.392 156.555L500.03 155.542H492.27L489.571 153.181L489.233 151.831L490.246 150.144L490.583 149.807Z" fill="#837021"/>
<path d="M558.401 153.855H559.076V154.53H672.443L675.479 154.868V155.205L629.255 155.542H615.422L559.076 155.205L558.401 153.855Z" fill="#847122"/>
<path d="M615.759 160.941H669.406L670.081 161.616L668.394 162.291H658.272L656.248 162.628H634.654L626.219 162.291H617.109L615.759 160.941Z" fill="#7F6517"/>
<path d="M479.786 185.234H482.485L481.811 186.583L480.461 187.596L477.424 188.608L473.038 189.958H467.64L466.627 189.283L466.965 187.258L468.314 185.571H477.762L479.786 185.234Z" fill="#006D3C"/>
<path d="M529.722 137.323L537.819 137.66L539.169 137.998L540.856 139.685L541.531 144.071V150.481L542.206 151.831L544.567 152.168V153.181L543.218 153.518H539.506L536.47 153.181L537.819 152.506L540.181 152.168L540.519 151.156L539.844 150.144L539.506 139.685L527.36 139.347L527.022 137.998L529.722 137.323Z" fill="#7F6517"/>
<path d="M475.062 137.998H477.424L479.786 138.335L487.884 138.672L488.896 139.01H494.632L499.355 139.347V141.034L492.607 140.697H485.522L479.449 140.359L475.4 139.685L476.075 139.01L475.062 137.998Z" fill="#7F6517"/>
<path d="M150.144 190.97H151.156L152.168 196.368L152.843 197.718L152.506 199.405L151.156 200.08H149.132L146.095 197.718V195.693L149.132 192.319L150.144 190.97Z" fill="#836F20"/>
<path d="M515.551 136.985H517.238L517.913 138.672L520.274 139.347H523.311L526.348 139.685L526.685 141.034H518.25L517.913 140.022L516.226 139.685L514.876 140.359L514.539 141.034H507.116L506.441 140.359V139.01H513.189L514.876 139.347L515.551 136.985Z" fill="#7F6517"/>
<path d="M457.518 124.164L460.554 124.839L461.904 125.176L462.916 126.188L463.928 126.526L465.615 128.213L466.965 128.888L467.302 130.912L466.627 131.587L465.953 131.25L465.278 129.562L460.554 127.201L457.518 125.514L457.18 124.839L457.518 124.164Z" fill="#7F6517"/>
<path d="M490.583 153.181L492.27 153.518H499.693L503.742 154.193L504.754 154.53V155.205L502.729 155.88L501.042 155.205L491.258 154.868L490.583 154.193V153.181Z" fill="#7F6517"/>
<path d="M500.03 135.973H506.778L508.465 136.648L507.791 137.323H499.693L498.681 136.648L500.03 135.973Z" fill="#7F6517"/>
<path d="M516.226 139.347L517.913 140.022L518.25 140.697H524.323L524.998 141.372L521.961 141.709L517.575 141.372L516.9 140.359L515.551 140.697L514.876 141.372H508.465V141.034H514.539L515.213 139.685L516.226 139.347Z" fill="#847122"/>
<path d="M150.144 190.97H151.156V196.031L150.481 196.706L149.807 195.693L149.469 191.645L150.144 190.97Z" fill="#7F6618"/>
<path d="M483.16 150.481L483.835 150.819L484.172 152.843L482.148 153.518H476.75L478.099 152.843L482.148 152.168L483.16 150.481Z" fill="#7F6517"/>
<path d="M465.953 136.311H466.627V137.323L468.989 137.66L472.701 137.998L473.375 138.335V139.01H470.001L466.627 138.335L465.953 137.66V136.311Z" fill="#7F6517"/>
<path d="M435.924 100.883H436.936V101.558H437.948V102.233L438.96 102.57L439.298 104.595L438.286 105.27L435.924 101.558V100.883Z" fill="#7F6517"/>
<path d="M491.933 154.868H501.042L503.404 155.542H504.079V156.217L502.392 156.555L500.03 155.542H492.27L491.933 154.868Z" fill="#847122"/>
<path d="M523.311 151.494L525.673 151.831V152.506H527.36L527.697 153.181L523.986 153.518L523.311 152.843V151.494Z" fill="#7F6517"/>
<path d="M151.156 197.38L152.843 197.718L152.506 199.405L150.144 199.742V199.067H150.819L151.156 197.38Z" fill="#7F6719"/>
<path d="M24.293 195.019L24.9678 195.356V196.031L26.6548 195.693L27.3296 196.031V196.706H23.6182L23.2808 195.693L24.293 195.019Z" fill="#7F6517"/>
<path d="M511.502 150.481H513.526V152.168L511.839 151.831L511.165 151.494L511.502 150.481Z" fill="#7F6517"/>
</svg>
